<svg version="1.1" id="Layer_1" xmlns="http://www.w3.org/2000/svg" xmlns:xlink="http://www.w3.org/1999/xlink" x="0px" y="0px" viewBox="0 0 100 100" style="enable-background:new 0 0 291.319 291.319;" xml:space="preserve" width="100" height="100"><g><path style="fill:#F4B459;" d="M86.534 82.35c-41.203 19.609 -66.775 3.203 -83.144 -6.762 -1.013 -0.628 -2.734 0.147 -1.241 1.863 5.453 6.612 23.325 22.55 46.653 22.55 23.344 0 37.231 -12.738 38.969 -14.96 1.725 -2.203 0.507 -3.419 -1.237 -2.691zm11.572 -6.391c-1.106 -1.441 -6.728 -1.709 -10.266 -1.275 -3.544 0.422 -8.862 2.588 -8.4 3.887 0.238 0.487 0.722 0.269 3.156 0.05 2.441 -0.244 9.278 -1.106 10.703 0.756 1.431 1.875 -2.181 10.809 -2.841 12.25 -0.637 1.441 0.244 1.812 1.441 0.853 1.181 -0.959 3.319 -3.444 4.753 -6.959 1.425 -3.535 2.294 -8.466 1.453 -9.563z"/><path style="fill:#484848;" d="M76.106 51.222V18.384C76.106 12.744 70.649 0 51.04 0 31.434 0 21.002 12.253 21.002 23.291l16.388 1.466s3.65 -11.031 12.122 -11.031 7.891 6.863 7.891 8.347v7.134C46.549 29.572 19.599 32.672 19.599 55.397c0 24.437 30.847 25.462 40.963 9.669 0.391 0.641 0.834 1.269 1.391 1.856 3.722 3.913 8.687 8.575 8.687 8.575l12.65 -12.5c0.007 -0.003 -7.184 -5.647 -7.184 -11.775zm-37.484 1.153c0 -10.497 11.247 -12.625 18.784 -12.875v9.034c-0.003 17.897 -18.784 15.187 -18.784 3.84z"/></g></svg>