<svg fill="#000000" width="100px" height="100px" viewBox="0 0 3 3" xmlns="http://www.w3.org/2000/svg" data-name="Layer 1"><path d="M1.867 0.649A0.547 0.547 0 0 0 2 0.25a0.555 0.555 0 0 0 -0.375 0.19 0.521 0.521 0 0 0 -0.125 0.386 0.461 0.461 0 0 0 0.367 -0.177Zm0.315 0.93a0.564 0.564 0 0 1 0.27 -0.476 0.583 0.583 0 0 0 -0.458 -0.25c-0.195 -0.02 -0.375 0.114 -0.479 0.114s-0.25 -0.111 -0.412 -0.109a0.615 0.615 0 0 0 -0.517 0.316C0.366 1.556 0.53 2.125 0.75 2.434c0.1 0.151 0.225 0.323 0.39 0.316s0.219 -0.102 0.41 -0.102 0.25 0.102 0.412 0.099 0.278 -0.155 0.383 -0.306a1.375 1.375 0 0 0 0.172 -0.356 0.551 0.551 0 0 1 -0.335 -0.505Z"/></svg>