<svg width="100px" height="100px" viewBox="0 0 2 2" xmlns="http://www.w3.org/2000/svg" fill="none"><path fill="#4285F4" d="M1.863 1.02c0 -0.059 -0.005 -0.119 -0.015 -0.178h-0.83v0.337h0.475a0.405 0.405 0 0 1 -0.176 0.266v0.219h0.284c0.167 -0.152 0.262 -0.378 0.262 -0.644z"/><path fill="#34A853" d="M1.018 1.875c0.237 0 0.437 -0.077 0.583 -0.211l-0.283 -0.219c-0.079 0.053 -0.181 0.084 -0.299 0.084 -0.23 0 -0.424 -0.154 -0.494 -0.361H0.231v0.225A0.88 0.88 0 0 0 1.018 1.875z"/><path fill="#FBBC04" d="M0.523 1.168a0.521 0.521 0 0 1 0 -0.335V0.607H0.231a0.871 0.871 0 0 0 0 0.786l0.292 -0.225z"/><path fill="#EA4335" d="M1.018 0.471a0.48 0.48 0 0 1 0.338 0.131l0.251 -0.25a0.848 0.848 0 0 0 -0.589 -0.228 0.88 0.88 0 0 0 -0.786 0.482L0.523 0.833c0.07 -0.207 0.265 -0.361 0.494 -0.361z"/></svg>