<svg width="100px" height="100px" viewBox="0 0 3 3" version="1.1" xmlns="http://www.w3.org/2000/svg" xmlns:xlink="http://www.w3.org/1999/xlink"><title>meta_fill</title><g id="页面-1" stroke="none" stroke-width="1" fill="none" fill-rule="evenodd"><g id="Brand" transform="translate(-480 -48)"><g id="meta_fill" transform="translate(480 48)"><path d="M3 0v3H0V0h3ZM1.574 2.907l-0.001 0 -0.009 0.004 -0.003 0.001 -0.002 -0.001 -0.009 -0.004c-0.001 -0.001 -0.002 0 -0.003 0.001l-0.001 0.001 -0.002 0.053 0.001 0.003 0.001 0.002 0.013 0.009 0.002 0.001 0.002 -0.001 0.013 -0.009 0.002 -0.002 0.001 -0.002 -0.002 -0.053c0 -0.001 -0.001 -0.002 -0.002 -0.002Zm0.033 -0.014 -0.002 0 -0.023 0.012 -0.001 0.001 0 0.001 0.002 0.054 0.001 0.002 0.001 0.001 0.025 0.012c0.002 0.001 0.003 0 0.004 -0.001l0.001 -0.002 -0.004 -0.077c0 -0.002 -0.001 -0.003 -0.003 -0.003Zm-0.089 0a0.003 0.003 0 0 0 -0.003 0.001l-0.001 0.002 -0.004 0.077c0 0.002 0.001 0.003 0.002 0.003l0.002 0 0.025 -0.012 0.001 -0.001 0.001 -0.001 0.002 -0.054 0 -0.002 -0.001 -0.001 -0.023 -0.011Z" id="MingCute" fill-rule="nonzero"/><path d="M2.003 0.563c0.229 -0.016 0.406 0.118 0.523 0.272 0.118 0.155 0.2 0.358 0.245 0.558 0.045 0.2 0.057 0.414 0.019 0.597 -0.036 0.175 -0.131 0.376 -0.346 0.441 -0.203 0.06 -0.38 -0.028 -0.506 -0.134 -0.127 -0.107 -0.234 -0.257 -0.319 -0.397a3.162 3.162 0 0 1 -0.111 -0.202 3.169 3.169 0 0 1 -0.111 0.202c-0.085 0.141 -0.192 0.29 -0.319 0.397 -0.127 0.106 -0.304 0.195 -0.506 0.134 -0.215 -0.064 -0.31 -0.265 -0.346 -0.441 -0.037 -0.183 -0.025 -0.397 0.02 -0.597 0.045 -0.2 0.126 -0.403 0.245 -0.558 0.117 -0.154 0.294 -0.287 0.523 -0.272 0.214 0.015 0.37 0.16 0.468 0.284l0.028 0.036 0.027 -0.036c0.097 -0.123 0.253 -0.269 0.468 -0.283ZM0.987 0.937c-0.052 -0.004 -0.121 0.023 -0.199 0.125 -0.077 0.101 -0.141 0.249 -0.177 0.412 -0.036 0.163 -0.042 0.322 -0.018 0.44 0.021 0.101 0.054 0.138 0.074 0.15l0.009 0.004 0.003 0.001c0.029 0.009 0.077 0.006 0.158 -0.062 0.081 -0.068 0.163 -0.177 0.239 -0.303 0.034 -0.057 0.066 -0.115 0.094 -0.17l0.033 -0.066 0.029 -0.062 0.026 -0.057 0.022 -0.051 0.018 -0.043a1.115 1.115 0 0 0 -0.083 -0.14c-0.081 -0.115 -0.161 -0.174 -0.227 -0.179Zm1.042 0c-0.066 0.005 -0.146 0.064 -0.227 0.179a1.115 1.115 0 0 0 -0.083 0.14l0.028 0.068 0.024 0.054 0.013 0.029 0.029 0.062 0.033 0.066c0.028 0.056 0.06 0.114 0.094 0.17 0.076 0.127 0.159 0.236 0.239 0.303 0.075 0.063 0.122 0.07 0.151 0.063l0.006 -0.002c0.016 -0.005 0.06 -0.031 0.086 -0.156 0.024 -0.117 0.019 -0.277 -0.018 -0.44 -0.036 -0.163 -0.1 -0.311 -0.177 -0.412 -0.078 -0.102 -0.146 -0.129 -0.199 -0.125Z" id="形状" fill="#09244B"/></g></g></g></svg>