<svg width="25px" height="25px" viewBox="0 0 25 25" xmlns="http://www.w3.org/2000/svg"><title>ionicons-v5_logos</title><path d="M24.219 5.347a9.854 9.854 0 0 1 -2.761 0.747 4.761 4.761 0 0 0 2.116 -2.617 9.655 9.655 0 0 1 -3.055 1.147A4.841 4.841 0 0 0 17.007 3.125c-2.657 0 -4.808 2.119 -4.808 4.731a4.551 4.551 0 0 0 0.124 1.079 13.706 13.706 0 0 1 -9.912 -4.946A4.672 4.672 0 0 0 1.758 6.367c0 1.641 0.856 3.091 2.148 3.94A4.761 4.761 0 0 1 1.72 9.717v0.059c0 2.295 1.66 4.204 3.857 4.639a4.92 4.92 0 0 1 -1.267 0.166 4.608 4.608 0 0 1 -0.904 -0.088c0.611 1.88 2.389 3.247 4.495 3.286A9.746 9.746 0 0 1 1.929 19.805a9.912 9.912 0 0 1 -1.147 -0.068A13.607 13.607 0 0 0 8.142 21.875c8.855 0 13.693 -7.212 13.693 -13.467 0 -0.205 -0.005 -0.41 -0.015 -0.61A9.691 9.691 0 0 0 24.219 5.347Z"/></svg>